<?xml version="1.0" encoding="UTF-8" standalone="no"?>
<svg
   xmlns:dc="http://purl.org/dc/elements/1.1/"
   xmlns:cc="http://creativecommons.org/ns#"
   xmlns:rdf="http://www.w3.org/1999/02/22-rdf-syntax-ns#"
   xmlns:svg="http://www.w3.org/2000/svg"
   xmlns="http://www.w3.org/2000/svg"
   xmlns:sodipodi="http://sodipodi.sourceforge.net/DTD/sodipodi-0.dtd"
   xmlns:inkscape="http://www.inkscape.org/namespaces/inkscape"
   inkscape:version="1.0 (4035a4f, 2020-05-01)"
   sodipodi:docname="analytics.svg"
   id="svg841"
   xml:space="preserve"
   style="enable-background:new 0 0 64 64;"
   viewBox="0 0 64 64"
   y="0px"
   x="0px"
   version="1.1"
   fill="#000000"
   width="100px"
   height="100px"><metadata
     id="metadata847"><rdf:RDF><cc:Work
         rdf:about=""><dc:format>image/svg+xml</dc:format><dc:type
           rdf:resource="http://purl.org/dc/dcmitype/StillImage" /></cc:Work></rdf:RDF></metadata><defs
     id="defs845" /><sodipodi:namedview
     inkscape:current-layer="svg841"
     inkscape:window-maximized="1"
     inkscape:window-y="23"
     inkscape:window-x="0"
     inkscape:cy="50"
     inkscape:cx="50"
     inkscape:zoom="6.68"
     showgrid="false"
     id="namedview843"
     inkscape:window-height="1395"
     inkscape:window-width="2560"
     inkscape:pageshadow="2"
     inkscape:pageopacity="0"
     guidetolerance="10"
     gridtolerance="10"
     objecttolerance="10"
     borderopacity="1"
     bordercolor="#666666"
     pagecolor="#ffffff" /><path
     style="fill:#8da9c4;fill-opacity:1"
     d="m 32,17 c -4.411,0 -8,3.589 -8,8 0,4.411 3.589,8 8,8 4.411,0 8,-3.589 8,-8 0,-4.411 -3.589,-8 -8,-8 z m 0,14 c -3.309,0 -6,-2.691 -6,-6 0,-3.309 2.691,-6 6,-6 3.309,0 6,2.691 6,6 0,3.309 -2.691,6 -6,6 z"
     id="path833" /><path
     style="fill:#134074;fill-opacity:1"
     d="m 32,21 c -2.206,0 -4,1.794 -4,4 0,2.206 1.794,4 4,4 2.206,0 4,-1.794 4,-4 0,-2.206 -1.794,-4 -4,-4 z m 0,6 c -1.103,0 -2,-0.897 -2,-2 0,-1.103 0.897,-2 2,-2 1.103,0 2,0.897 2,2 0,1.103 -0.897,2 -2,2 z"
     id="path835" /><path
     style="fill:#0b2545;fill-opacity:1"
     d="m 58,20 c -2.414,0 -4.434,1.721 -4.899,4 H 50.953 C 50.72,19.531 48.954,15.438 46.123,12.29 L 47.98,10.433 C 48.576,10.785 49.26,11 50,11 c 2.206,0 4,-1.794 4,-4 0,-2.206 -1.794,-4 -4,-4 -2.206,0 -4,1.794 -4,4 0,0.74 0.215,1.424 0.567,2.019 l -1.863,1.863 C 42.231,8.653 39.166,7.06 35.74,6.378 35.9,5.947 36,5.486 36,5 36,2.794 34.206,1 32,1 c -2.206,0 -4,1.794 -4,4 0,0.486 0.1,0.947 0.26,1.378 -3.425,0.682 -6.49,2.275 -8.963,4.504 L 17.434,9.019 C 17.785,8.424 18,7.74 18,7 18,4.794 16.206,3 14,3 c -2.206,0 -4,1.794 -4,4 0,2.206 1.794,4 4,4 0.74,0 1.424,-0.215 2.019,-0.567 l 1.857,1.857 c -2.831,3.148 -4.597,7.241 -4.83,11.709 H 10.898 C 10.434,21.721 8.414,20 6,20 c -2.757,0 -5,2.243 -5,5 0,2.757 2.243,5 5,5 2.414,0 4.434,-1.721 4.899,-4 h 2.148 c 0.228,4.34 1.914,8.457 4.836,11.704 L 16.02,39.567 C 15.424,39.215 14.74,39 14,39 c -2.206,0 -4,1.794 -4,4 0,2.206 1.794,4 4,4 2.206,0 4,-1.794 4,-4 0,-0.74 -0.215,-1.424 -0.567,-2.019 l 1.796,-1.796 2.331,2.542 c 1.348,1.47 2.172,3.317 2.382,5.279 C 22.315,47.038 21,48.366 21,50 c 0,0.771 0.301,1.468 0.78,2 -0.48,0.532 -0.78,1.229 -0.78,2 0,1.654 1.346,3 3,3 h 0.08 c 0.488,3.387 3.401,6 6.92,6 h 2 c 3.519,0 6.432,-2.613 6.92,-6 H 40 c 1.654,0 3,-1.346 3,-3 0,-0.771 -0.301,-1.468 -0.78,-2 0.48,-0.532 0.78,-1.229 0.78,-2 0,-1.634 -1.315,-2.962 -2.942,-2.994 0.21,-1.962 1.034,-3.808 2.382,-5.279 l 2.331,-2.542 1.796,1.796 C 46.215,41.576 46,42.26 46,43 c 0,2.206 1.794,4 4,4 2.206,0 4,-1.794 4,-4 0,-2.206 -1.794,-4 -4,-4 -0.74,0 -1.424,0.215 -2.019,0.567 L 46.118,37.704 C 49.039,34.457 50.726,30.34 50.954,26 h 2.148 c 0.465,2.279 2.484,4 4.899,4 2.757,0 5,-2.243 5,-5 0,-2.757 -2.244,-5 -5.001,-5 z M 6,28 c -1.654,0 -3,-1.346 -3,-3 0,-1.654 1.346,-3 3,-3 1.654,0 3,1.346 3,3 0,1.654 -1.346,3 -3,3 z M 48.953,24 H 45 V 21.292 L 43.174,20.647 C 43.112,20.49 43.047,20.333 42.978,20.176 l 0.836,-1.748 -1.914,-1.915 2.811,-2.811 c 2.469,2.783 4.014,6.377 4.242,10.298 z m -7.502,4.242 c -0.13,0.38 -0.29,0.765 -0.477,1.146 l -0.214,0.435 0.639,1.334 -3.242,3.242 -1.335,-0.638 -0.436,0.214 C 36.011,34.16 35.625,34.32 35.24,34.452 L 34.782,34.609 34.292,36 H 29.708 L 29.217,34.608 28.759,34.451 C 28.374,34.319 27.988,34.159 27.613,33.974 L 27.177,33.76 25.842,34.398 22.6,31.156 23.239,29.822 23.025,29.387 C 22.838,29.006 22.678,28.621 22.548,28.241 L 22.392,27.783 21,27.292 v -4.585 l 1.393,-0.491 0.156,-0.458 c 0.13,-0.38 0.29,-0.765 0.477,-1.146 l 0.214,-0.435 -0.639,-1.334 3.242,-3.242 1.335,0.638 0.436,-0.214 C 27.989,15.84 28.375,15.68 28.76,15.548 L 29.218,15.391 29.708,14 h 4.584 l 0.491,1.392 0.458,0.157 c 0.385,0.132 0.771,0.292 1.146,0.477 l 0.436,0.214 1.335,-0.638 3.242,3.242 -0.639,1.334 0.214,0.435 c 0.187,0.381 0.347,0.766 0.477,1.146 l 0.156,0.458 1.392,0.491 v 4.585 l -1.393,0.491 z M 32,51 c -1.103,0 -2,-0.897 -2,-2 0,-1.103 0.897,-2 2,-2 1.103,0 2,0.897 2,2 0,1.103 -0.897,2 -2,2 z M 50,5 c 1.103,0 2,0.897 2,2 0,1.103 -0.897,2 -2,2 -1.103,0 -2,-0.897 -2,-2 0,-1.103 0.897,-2 2,-2 z m -9.515,10.101 -1.914,-1.915 -1.749,0.836 C 36.667,13.953 36.509,13.888 36.351,13.826 L 35.708,12 H 33 V 8.858 c 0.514,-0.134 0.985,-0.365 1.398,-0.676 3.409,0.481 6.463,1.957 8.889,4.117 z M 32,3 c 1.103,0 2,0.897 2,2 0,1.103 -0.897,2 -2,2 C 30.897,7 30,6.103 30,5 30,3.897 30.897,3 32,3 Z M 29.602,8.182 C 30.015,8.493 30.486,8.724 31,8.858 V 12 h -2.708 l -0.644,1.826 c -0.158,0.062 -0.315,0.127 -0.471,0.196 l -1.749,-0.836 -1.914,1.915 -2.802,-2.802 c 2.427,-2.16 5.481,-3.636 8.89,-4.117 z M 14,9 c -1.103,0 -2,-0.897 -2,-2 0,-1.103 0.897,-2 2,-2 1.103,0 2,0.897 2,2 0,1.103 -0.897,2 -2,2 z m 5.29,4.704 2.811,2.811 -1.914,1.915 0.836,1.748 c -0.069,0.157 -0.135,0.314 -0.196,0.471 L 19,21.292 V 24 H 15.047 C 15.275,20.079 16.82,16.485 19.29,13.704 Z M 15.047,26 H 19 v 2.708 l 1.826,0.645 c 0.062,0.157 0.127,0.314 0.196,0.471 l -0.836,1.748 1.914,1.915 -2.8,2.8 C 16.754,33.419 15.27,29.81 15.047,26 Z M 14,45 c -1.103,0 -2,-0.897 -2,-2 0,-1.103 0.897,-2 2,-2 1.103,0 2,0.897 2,2 0,1.103 -0.897,2 -2,2 z m 6.645,-7.231 2.87,-2.87 1.914,1.915 1.749,-0.836 c 0.155,0.069 0.313,0.134 0.471,0.196 L 28.292,38 H 31 v 7.142 C 29.957,45.413 29.087,46.091 28.556,47 H 25.953 C 25.735,44.537 24.719,42.215 23.034,40.375 Z M 24,49 h 4 c 0,0.732 0.212,1.409 0.556,2 H 24 c -0.552,0 -1,-0.449 -1,-1 0,-0.551 0.448,-1 1,-1 z m 9,12 h -2 c -2.414,0 -4.434,-1.721 -4.899,-4 H 37.899 C 37.434,59.279 35.414,61 33,61 Z m 7,-6 H 24 c -0.552,0 -1,-0.449 -1,-1 0,-0.551 0.448,-1 1,-1 h 16 c 0.552,0 1,0.449 1,1 0,0.551 -0.448,1 -1,1 z m 1,-5 c 0,0.551 -0.448,1 -1,1 H 35.444 C 35.788,50.409 36,49.732 36,49 h 4 c 0.552,0 1,0.449 1,1 z M 40.966,40.375 C 39.281,42.215 38.264,44.537 38.047,47 H 35.444 C 34.914,46.091 34.043,45.413 33,45.142 V 38 h 2.708 l 0.644,-1.826 c 0.158,-0.062 0.315,-0.127 0.471,-0.196 l 1.749,0.836 1.914,-1.915 2.87,2.87 z M 50,41 c 1.103,0 2,0.897 2,2 0,1.103 -0.897,2 -2,2 -1.103,0 -2,-0.897 -2,-2 0,-1.103 0.897,-2 2,-2 z m -5.301,-4.715 -2.8,-2.8 1.914,-1.915 -0.836,-1.748 c 0.069,-0.157 0.135,-0.314 0.196,-0.471 L 45,28.708 V 26 h 3.953 c -0.223,3.81 -1.707,7.419 -4.254,10.285 z M 58,28 c -1.654,0 -3,-1.346 -3,-3 0,-1.654 1.346,-3 3,-3 1.654,0 3,1.346 3,3 0,1.654 -1.346,3 -3,3 z"
     id="path837" /></svg>
