<?xml version="1.0" encoding="UTF-8" standalone="no"?>
<svg
   xmlns:dc="http://purl.org/dc/elements/1.1/"
   xmlns:cc="http://creativecommons.org/ns#"
   xmlns:rdf="http://www.w3.org/1999/02/22-rdf-syntax-ns#"
   xmlns:svg="http://www.w3.org/2000/svg"
   xmlns="http://www.w3.org/2000/svg"
   xmlns:sodipodi="http://sodipodi.sourceforge.net/DTD/sodipodi-0.dtd"
   xmlns:inkscape="http://www.inkscape.org/namespaces/inkscape"
   inkscape:version="1.0 (4035a4f, 2020-05-01)"
   sodipodi:docname="project.svg"
   id="svg1087"
   xml:space="preserve"
   style="enable-background:new 0 0 100 100;"
   viewBox="0 0 100 100"
   y="0px"
   x="0px"
   version="1.1"
   fill="#000000"
   width="100px"
   height="100px"><metadata
     id="metadata1093"><rdf:RDF><cc:Work
         rdf:about=""><dc:format>image/svg+xml</dc:format><dc:type
           rdf:resource="http://purl.org/dc/dcmitype/StillImage" /><dc:title></dc:title></cc:Work></rdf:RDF></metadata><defs
     id="defs1091" /><sodipodi:namedview
     inkscape:current-layer="svg1087"
     inkscape:window-maximized="1"
     inkscape:window-y="23"
     inkscape:window-x="0"
     inkscape:cy="50"
     inkscape:cx="50"
     inkscape:zoom="6.68"
     showgrid="false"
     id="namedview1089"
     inkscape:window-height="1395"
     inkscape:window-width="2560"
     inkscape:pageshadow="2"
     inkscape:pageopacity="0"
     guidetolerance="10"
     gridtolerance="10"
     objecttolerance="10"
     borderopacity="1"
     bordercolor="#666666"
     pagecolor="#ffffff" /><g
     id="g1374"><g
       id="g877"
       style="fill:#8da9c4;fill-opacity:1"><g
         id="g853"
         style="fill:#8da9c4;fill-opacity:1"><g
           id="g841"
           style="fill:#8da9c4;fill-opacity:1"><g
             id="g839"
             style="fill:#8da9c4;fill-opacity:1"><g
               id="g837"
               style="fill:#8da9c4;fill-opacity:1"><g
                 id="g835"
                 style="fill:#8da9c4;fill-opacity:1"><path
                   id="path833"
                   d="m 76.93,30.61 c -0.31,0 -0.63,-0.07 -0.92,-0.22 L 53.34,18.62 c -0.98,-0.51 -1.36,-1.72 -0.85,-2.7 0.51,-0.98 1.71,-1.36 2.7,-0.85 l 22.67,11.77 c 0.98,0.51 1.36,1.72 0.85,2.7 -0.36,0.67 -1.05,1.07 -1.78,1.07 z"
                   style="fill:#8da9c4;fill-opacity:1" /></g></g></g></g><g
           id="g851"
           style="fill:#8da9c4;fill-opacity:1"><g
             id="g849"
             style="fill:#8da9c4;fill-opacity:1"><g
               id="g847"
               style="fill:#8da9c4;fill-opacity:1"><g
                 id="g845"
                 style="fill:#8da9c4;fill-opacity:1"><path
                   id="path843"
                   d="m 22.6,31.1 c -0.7,0 -1.37,-0.36 -1.74,-1.01 -0.54,-0.96 -0.21,-2.18 0.75,-2.73 l 22.7,-12.88 c 0.96,-0.55 2.18,-0.21 2.73,0.75 0.54,0.96 0.21,2.18 -0.75,2.73 l -22.7,12.88 c -0.31,0.17 -0.65,0.26 -0.99,0.26 z"
                   style="fill:#8da9c4;fill-opacity:1" /></g></g></g></g></g><g
         id="g875"
         style="fill:#8da9c4;fill-opacity:1"><g
           id="g863"
           style="fill:#8da9c4;fill-opacity:1"><g
             id="g861"
             style="fill:#8da9c4;fill-opacity:1"><g
               id="g859"
               style="fill:#8da9c4;fill-opacity:1"><g
                 id="g857"
                 style="fill:#8da9c4;fill-opacity:1"><path
                   id="path855"
                   d="m 55.04,85.59 c -0.7,0 -1.37,-0.36 -1.74,-1.01 -0.54,-0.96 -0.21,-2.18 0.75,-2.73 L 76.41,69.16 c 0.96,-0.54 2.18,-0.21 2.73,0.75 0.54,0.96 0.21,2.18 -0.75,2.73 L 56.03,85.33 c -0.31,0.18 -0.65,0.26 -0.99,0.26 z"
                   style="fill:#8da9c4;fill-opacity:1" /></g></g></g></g><g
           id="g873"
           style="fill:#8da9c4;fill-opacity:1"><g
             id="g871"
             style="fill:#8da9c4;fill-opacity:1"><g
               id="g869"
               style="fill:#8da9c4;fill-opacity:1"><g
                 id="g867"
                 style="fill:#8da9c4;fill-opacity:1"><path
                   id="path865"
                   d="m 45.42,85.59 c -0.31,0 -0.62,-0.07 -0.92,-0.22 L 21.26,73.33 c -0.98,-0.51 -1.36,-1.71 -0.86,-2.7 0.51,-0.98 1.71,-1.36 2.7,-0.86 l 23.24,12.04 c 0.98,0.51 1.36,1.71 0.86,2.7 -0.36,0.69 -1.06,1.08 -1.78,1.08 z"
                   style="fill:#8da9c4;fill-opacity:1" /></g></g></g></g></g></g><g
       id="g923"
       style="fill:#134074;fill-opacity:1"><g
         id="g899"
         style="fill:#134074;fill-opacity:1"><g
           id="g887"
           style="fill:#134074;fill-opacity:1"><g
             id="g885"
             style="fill:#134074;fill-opacity:1"><g
               id="g883"
               style="fill:#134074;fill-opacity:1"><g
                 id="g881"
                 style="fill:#134074;fill-opacity:1"><path
                   id="path879"
                   d="m 50,20.85 c -4.12,0 -7.47,-3.31 -7.47,-7.37 0,-4.06 3.35,-7.37 7.47,-7.37 4.12,0 7.47,3.31 7.47,7.37 0,4.06 -3.35,7.37 -7.47,7.37 z m 0,-10.74 c -1.91,0 -3.47,1.51 -3.47,3.37 0,1.86 1.56,3.37 3.47,3.37 1.91,0 3.47,-1.51 3.47,-3.37 0,-1.86 -1.56,-3.37 -3.47,-3.37 z"
                   style="fill:#134074;fill-opacity:1" /></g></g></g></g><g
           id="g897"
           style="fill:#134074;fill-opacity:1"><g
             id="g895"
             style="fill:#134074;fill-opacity:1"><g
               id="g893"
               style="fill:#134074;fill-opacity:1"><g
                 id="g891"
                 style="fill:#134074;fill-opacity:1"><path
                   id="path889"
                   d="m 50,28.64 c -0.55,0 -1,-0.45 -1,-1 v -8.2 c 0,-0.55 0.45,-1 1,-1 0.55,0 1,0.45 1,1 v 8.2 c 0,0.55 -0.45,1 -1,1 z"
                   style="fill:#134074;fill-opacity:1" /></g></g></g></g></g><g
         id="g921"
         style="fill:#134074;fill-opacity:1"><g
           id="g909"
           style="fill:#134074;fill-opacity:1"><g
             id="g907"
             style="fill:#134074;fill-opacity:1"><g
               id="g905"
               style="fill:#134074;fill-opacity:1"><g
                 id="g903"
                 style="fill:#134074;fill-opacity:1"><path
                   id="path901"
                   d="m 50,93.89 c -4.12,0 -7.47,-3.31 -7.47,-7.37 0,-4.06 3.35,-7.37 7.47,-7.37 4.12,0 7.47,3.31 7.47,7.37 0,4.06 -3.35,7.37 -7.47,7.37 z m 0,-10.73 c -1.91,0 -3.47,1.51 -3.47,3.37 0,1.86 1.56,3.37 3.47,3.37 1.91,0 3.47,-1.51 3.47,-3.37 0,-1.86 -1.56,-3.37 -3.47,-3.37 z"
                   style="fill:#134074;fill-opacity:1" /></g></g></g></g><g
           id="g919"
           style="fill:#134074;fill-opacity:1"><g
             id="g917"
             style="fill:#134074;fill-opacity:1"><g
               id="g915"
               style="fill:#134074;fill-opacity:1"><g
                 id="g913"
                 style="fill:#134074;fill-opacity:1"><path
                   id="path911"
                   d="m 50,81.56 c -0.55,0 -1,-0.45 -1,-1 v -8.2 c 0,-0.55 0.45,-1 1,-1 0.55,0 1,0.45 1,1 v 8.2 c 0,0.55 -0.45,1 -1,1 z"
                   style="fill:#134074;fill-opacity:1" /></g></g></g></g></g></g><g
       id="g1071"
       style="fill:#8da9c4;fill-opacity:1"><g
         id="g1069"
         style="fill:#8da9c4;fill-opacity:1"><g
           id="g1067"
           style="fill:#8da9c4;fill-opacity:1"><g
             id="g1065"
             style="fill:#8da9c4;fill-opacity:1"><path
               d="m 17.87,64.95 c -1.1,0 -2,-0.9 -2,-2 v -25.9 c 0,-1.1 0.9,-2 2,-2 1.1,0 2,0.9 2,2 v 25.91 c 0,1.1 -0.9,1.99 -2,1.99 z"
               id="path1063"
               style="fill:#8da9c4;fill-opacity:1" /></g></g></g></g><g
       id="g1081"><g
         id="g1079"
         style="fill:#8da9c4;fill-opacity:1"><g
           id="g1077"
           style="fill:#8da9c4;fill-opacity:1"><g
             id="g1075"
             style="fill:#8da9c4;fill-opacity:1"><path
               d="m 82.13,64.95 c -1.1,0 -2,-0.9 -2,-2 v -25.9 c 0,-1.1 0.9,-2 2,-2 1.1,0 2,0.9 2,2 v 25.91 c 0,1.1 -0.9,1.99 -2,1.99 z"
               id="path1073"
               style="fill:#8da9c4;fill-opacity:1" /></g></g></g></g><g
       id="g1017"
       style="fill:#134074;fill-opacity:1"><g
         id="g969"
         style="fill:#134074;fill-opacity:1"><g
           id="g945"
           style="fill:#134074;fill-opacity:1"><g
             id="g933"
             style="fill:#134074;fill-opacity:1"><g
               id="g931"
               style="fill:#134074;fill-opacity:1"><g
                 id="g929"
                 style="fill:#134074;fill-opacity:1"><g
                   id="g927"
                   style="fill:#134074;fill-opacity:1"><path
                     id="path925"
                     d="m 82.21,39.04 c -2.58,0 -5.08,-1.31 -6.47,-3.65 -1,-1.7 -1.28,-3.68 -0.77,-5.58 0.51,-1.92 1.75,-3.52 3.49,-4.51 3.55,-2.02 8.12,-0.82 10.19,2.67 1,1.7 1.28,3.68 0.77,5.58 -0.51,1.92 -1.75,3.52 -3.49,4.51 -1.18,0.67 -2.46,0.98 -3.72,0.98 z M 82.19,28.31 c -0.6,0 -1.2,0.15 -1.75,0.46 -0.8,0.46 -1.37,1.19 -1.61,2.07 -0.23,0.86 -0.1,1.75 0.35,2.52 0.96,1.63 3.1,2.18 4.77,1.23 0,0 0,0 0,0 0.8,-0.46 1.37,-1.19 1.61,-2.07 0.23,-0.86 0.1,-1.75 -0.35,-2.52 -0.65,-1.09 -1.82,-1.69 -3.02,-1.69 z"
                     style="fill:#134074;fill-opacity:1" /></g></g></g></g><g
             id="g943"
             style="fill:#134074;fill-opacity:1"><g
               id="g941"
               style="fill:#134074;fill-opacity:1"><g
                 id="g939"
                 style="fill:#134074;fill-opacity:1"><g
                   id="g937"
                   style="fill:#134074;fill-opacity:1"><path
                     id="path935"
                     d="m 69.71,39.78 c -0.35,0 -0.69,-0.18 -0.87,-0.51 -0.27,-0.48 -0.11,-1.09 0.38,-1.36 l 7.23,-4.11 c 0.48,-0.27 1.09,-0.11 1.36,0.38 0.27,0.48 0.11,1.09 -0.38,1.36 l -7.23,4.11 c -0.15,0.09 -0.32,0.13 -0.49,0.13 z"
                     style="fill:#134074;fill-opacity:1" /></g></g></g></g></g><g
           id="g967"
           style="fill:#134074;fill-opacity:1"><g
             id="g955"
             style="fill:#134074;fill-opacity:1"><g
               id="g953"
               style="fill:#134074;fill-opacity:1"><g
                 id="g951"
                 style="fill:#134074;fill-opacity:1"><g
                   id="g949"
                   style="fill:#134074;fill-opacity:1"><path
                     id="path947"
                     d="m 17.79,39.04 c -1.27,0 -2.55,-0.32 -3.72,-0.98 v 0 c -1.74,-0.99 -2.98,-2.59 -3.49,-4.51 -0.5,-1.9 -0.23,-3.88 0.77,-5.58 2.06,-3.49 6.63,-4.69 10.19,-2.67 1.74,0.99 2.98,2.6 3.49,4.51 0.5,1.9 0.23,3.88 -0.77,5.58 -1.38,2.34 -3.89,3.65 -6.47,3.65 z m -1.74,-4.46 c 1.67,0.95 3.81,0.4 4.77,-1.23 0.45,-0.77 0.58,-1.66 0.35,-2.52 -0.23,-0.88 -0.8,-1.61 -1.61,-2.07 -1.66,-0.95 -3.8,-0.39 -4.77,1.23 -0.45,0.77 -0.58,1.66 -0.35,2.52 0.24,0.88 0.81,1.61 1.61,2.07 z"
                     style="fill:#134074;fill-opacity:1" /></g></g></g></g><g
             id="g965"
             style="fill:#134074;fill-opacity:1"><g
               id="g963"
               style="fill:#134074;fill-opacity:1"><g
                 id="g961"
                 style="fill:#134074;fill-opacity:1"><g
                   id="g959"
                   style="fill:#134074;fill-opacity:1"><path
                     id="path957"
                     d="m 30.29,39.78 c -0.17,0 -0.34,-0.04 -0.49,-0.13 l -7.23,-4.11 c -0.48,-0.27 -0.65,-0.88 -0.38,-1.36 0.27,-0.48 0.89,-0.65 1.36,-0.38 l 7.23,4.11 c 0.48,0.27 0.65,0.88 0.38,1.36 -0.18,0.33 -0.52,0.51 -0.87,0.51 z"
                     style="fill:#134074;fill-opacity:1" /></g></g></g></g></g></g><g
         id="g1015"
         style="fill:#134074;fill-opacity:1"><g
           id="g991"
           style="fill:#134074;fill-opacity:1"><g
             id="g979"
             style="fill:#134074;fill-opacity:1"><g
               id="g977"
               style="fill:#134074;fill-opacity:1"><g
                 id="g975"
                 style="fill:#134074;fill-opacity:1"><g
                   id="g973"
                   style="fill:#134074;fill-opacity:1"><path
                     id="path971"
                     d="m 17.82,75.69 c -2.57,0 -5.08,-1.31 -6.47,-3.66 -1,-1.7 -1.28,-3.68 -0.77,-5.58 0.51,-1.92 1.75,-3.52 3.49,-4.51 3.55,-2.02 8.12,-0.82 10.19,2.67 1,1.7 1.28,3.68 0.77,5.58 -0.51,1.92 -1.75,3.52 -3.49,4.51 -1.17,0.67 -2.45,0.99 -3.72,0.99 z M 17.81,64.95 c -0.6,0 -1.2,0.15 -1.75,0.46 v 0 c -0.8,0.46 -1.37,1.19 -1.61,2.06 -0.23,0.86 -0.1,1.75 0.35,2.52 0.96,1.63 3.1,2.18 4.76,1.23 0.8,-0.46 1.37,-1.19 1.61,-2.06 0.23,-0.86 0.1,-1.75 -0.35,-2.52 -0.64,-1.08 -1.81,-1.69 -3.01,-1.69 z m -2.75,-1.27 z"
                     style="fill:#134074;fill-opacity:1" /></g></g></g></g><g
             id="g989"
             style="fill:#134074;fill-opacity:1"><g
               id="g987"
               style="fill:#134074;fill-opacity:1"><g
                 id="g985"
                 style="fill:#134074;fill-opacity:1"><g
                   id="g983"
                   style="fill:#134074;fill-opacity:1"><path
                     id="path981"
                     d="m 23.07,66.33 c -0.35,0 -0.69,-0.18 -0.87,-0.5 -0.27,-0.48 -0.11,-1.09 0.37,-1.36 l 7.23,-4.11 c 0.48,-0.27 1.09,-0.11 1.36,0.37 0.27,0.48 0.11,1.09 -0.37,1.36 l -7.23,4.11 c -0.15,0.09 -0.32,0.13 -0.49,0.13 z"
                     style="fill:#134074;fill-opacity:1" /></g></g></g></g></g><g
           id="g1013"
           style="fill:#134074;fill-opacity:1"><g
             id="g1001"
             style="fill:#134074;fill-opacity:1"><g
               id="g999"
               style="fill:#134074;fill-opacity:1"><g
                 id="g997"
                 style="fill:#134074;fill-opacity:1"><g
                   id="g995"
                   style="fill:#134074;fill-opacity:1"><path
                     id="path993"
                     d="m 82.18,75.69 c -1.27,0 -2.55,-0.32 -3.72,-0.99 -1.74,-0.99 -2.98,-2.59 -3.49,-4.51 -0.51,-1.9 -0.23,-3.88 0.77,-5.58 2.06,-3.49 6.64,-4.69 10.19,-2.67 v 0 c 1.74,0.99 2.98,2.6 3.49,4.52 0.5,1.9 0.23,3.88 -0.77,5.58 -1.39,2.34 -3.9,3.65 -6.47,3.65 z m 0.01,-10.74 c -1.2,0 -2.37,0.61 -3.01,1.69 -0.45,0.77 -0.58,1.66 -0.35,2.52 0.23,0.87 0.8,1.61 1.6,2.06 1.67,0.95 3.81,0.4 4.77,-1.23 0.45,-0.77 0.58,-1.66 0.35,-2.52 -0.23,-0.88 -0.8,-1.61 -1.61,-2.07 v 0 c -0.55,-0.3 -1.15,-0.45 -1.75,-0.45 z"
                     style="fill:#134074;fill-opacity:1" /></g></g></g></g><g
             id="g1011"
             style="fill:#134074;fill-opacity:1"><g
               id="g1009"
               style="fill:#134074;fill-opacity:1"><g
                 id="g1007"
                 style="fill:#134074;fill-opacity:1"><g
                   id="g1005"
                   style="fill:#134074;fill-opacity:1"><path
                     id="path1003"
                     d="m 76.93,66.33 c -0.17,0 -0.34,-0.04 -0.49,-0.13 l -7.23,-4.11 c -0.48,-0.27 -0.65,-0.88 -0.38,-1.36 0.27,-0.48 0.88,-0.65 1.36,-0.38 l 7.23,4.11 c 0.48,0.27 0.65,0.88 0.38,1.36 -0.18,0.33 -0.52,0.51 -0.87,0.51 z"
                     style="fill:#134074;fill-opacity:1" /></g></g></g></g></g></g></g><g
       id="g1061"
       style="fill:#0b2545;fill-opacity:1"><g
         id="g1027"
         style="fill:#0b2545;fill-opacity:1"><g
           id="g1025"
           style="fill:#0b2545;fill-opacity:1"><g
             id="g1023"
             style="fill:#0b2545;fill-opacity:1"><g
               id="g1021"
               style="fill:#0b2545;fill-opacity:1"><path
                 id="path1019"
                 d="m 72.65,51 h -45.3 c -0.55,0 -1,-0.45 -1,-1 0,-0.55 0.45,-1 1,-1 h 45.3 c 0.55,0 1,0.45 1,1 0,0.55 -0.45,1 -1,1 z"
                 style="fill:#0b2545;fill-opacity:1" /></g></g></g></g><g
         id="g1049"
         style="fill:#0b2545;fill-opacity:1"><g
           id="g1037"
           style="fill:#0b2545;fill-opacity:1"><g
             id="g1035"
             style="fill:#0b2545;fill-opacity:1"><g
               id="g1033"
               style="fill:#0b2545;fill-opacity:1"><g
                 id="g1031"
                 style="fill:#0b2545;fill-opacity:1"><path
                   id="path1029"
                   d="m 49.27,72.87 c -0.32,0 -0.63,-0.15 -0.83,-0.44 -11.51,-16.87 -6.45,-36.75 -2.17,-44.91 0.26,-0.49 0.86,-0.68 1.35,-0.42 0.49,0.26 0.68,0.86 0.42,1.35 -4.09,7.79 -8.93,26.77 2.05,42.85 0.31,0.46 0.19,1.08 -0.26,1.39 -0.17,0.13 -0.37,0.18 -0.56,0.18 z"
                   style="fill:#0b2545;fill-opacity:1" /></g></g></g></g><g
           id="g1047"
           style="fill:#0b2545;fill-opacity:1"><g
             id="g1045"
             style="fill:#0b2545;fill-opacity:1"><g
               id="g1043"
               style="fill:#0b2545;fill-opacity:1"><g
                 id="g1041"
                 style="fill:#0b2545;fill-opacity:1"><path
                   id="path1039"
                   d="m 50.63,72.87 c -0.19,0 -0.39,-0.06 -0.56,-0.17 -0.46,-0.31 -0.57,-0.93 -0.26,-1.39 10.77,-15.79 8.02,-34.5 3.76,-42.58 -0.26,-0.49 -0.07,-1.09 0.42,-1.35 0.49,-0.26 1.09,-0.07 1.35,0.42 4.48,8.5 7.38,28.13 -3.88,44.64 -0.2,0.28 -0.51,0.43 -0.83,0.43 z"
                   style="fill:#0b2545;fill-opacity:1" /></g></g></g></g></g><g
         id="g1059"
         style="fill:#0b2545;fill-opacity:1"><g
           id="g1057"
           style="fill:#0b2545;fill-opacity:1"><g
             id="g1055"
             style="fill:#0b2545;fill-opacity:1"><g
               id="g1053"
               style="fill:#0b2545;fill-opacity:1"><path
                 id="path1051"
                 d="m 49.95,73.18 c -13.01,0 -23.6,-10.4 -23.6,-23.18 0,-12.78 10.59,-23.18 23.6,-23.18 13.01,0 23.6,10.4 23.6,23.18 0,12.78 -10.59,23.18 -23.6,23.18 z m 0,-44.36 c -11.91,0 -21.6,9.5 -21.6,21.18 0,11.68 9.69,21.18 21.6,21.18 11.91,0 21.6,-9.5 21.6,-21.18 0,-11.68 -9.69,-21.18 -21.6,-21.18 z"
                 style="fill:#0b2545;fill-opacity:1" /></g></g></g></g></g></g></svg>
