<?xml version="1.0" encoding="UTF-8" standalone="no"?>
<svg
   xmlns:dc="http://purl.org/dc/elements/1.1/"
   xmlns:cc="http://creativecommons.org/ns#"
   xmlns:rdf="http://www.w3.org/1999/02/22-rdf-syntax-ns#"
   xmlns:svg="http://www.w3.org/2000/svg"
   xmlns="http://www.w3.org/2000/svg"
   xmlns:sodipodi="http://sodipodi.sourceforge.net/DTD/sodipodi-0.dtd"
   xmlns:inkscape="http://www.inkscape.org/namespaces/inkscape"
   inkscape:version="1.0 (4035a4f, 2020-05-01)"
   sodipodi:docname="software.svg"
   id="svg847"
   xml:space="preserve"
   enable-background="new 0 0 100 100"
   viewBox="0 0 100 100"
   y="0px"
   x="0px"
   version="1.1"
   fill="#000000"
   width="100px"
   height="100px"><metadata
     id="metadata853"><rdf:RDF><cc:Work
         rdf:about=""><dc:format>image/svg+xml</dc:format><dc:type
           rdf:resource="http://purl.org/dc/dcmitype/StillImage" /></cc:Work></rdf:RDF></metadata><defs
     id="defs851" /><sodipodi:namedview
     inkscape:current-layer="svg847"
     inkscape:window-maximized="1"
     inkscape:window-y="23"
     inkscape:window-x="0"
     inkscape:cy="50"
     inkscape:cx="50"
     inkscape:zoom="6.69"
     showgrid="false"
     id="namedview849"
     inkscape:window-height="855"
     inkscape:window-width="1440"
     inkscape:pageshadow="2"
     inkscape:pageopacity="0"
     guidetolerance="10"
     gridtolerance="10"
     objecttolerance="10"
     borderopacity="1"
     bordercolor="#666666"
     pagecolor="#ffffff" /><g
     id="g867"><path
       id="path833"
       d="m 76.9,47.3 c -1.4,0 -2.6,0.9 -3,2.1 H 67.2 C 66.6,40.4 59.4,33.2 50.5,32.7 v -1.1 c 3.9,0.2 7.6,1.6 10.7,4.1 0,0 0,0 0,0 0,0 0.1,0 0.1,0.1 0,0 0.1,0 0.1,0.1 0,0 0.1,0 0.1,0 0,0 0.1,0 0.1,0 0,0 0.1,0 0.1,0 0,0 0.1,0 0.1,0 0,0 0,0 0,0 h 3.3 c 0.5,1.2 1.6,2.1 3,2.1 1.8,0 3.2,-1.5 3.2,-3.2 0,-1.8 -1.5,-3.2 -3.2,-3.2 -1.4,0 -2.6,0.9 -3,2.1 H 62.2 C 58.8,31.1 54.6,29.6 50.4,29.3 v -4.2 c 1.2,-0.5 2.1,-1.6 2.1,-3 0,-1.8 -1.5,-3.2 -3.2,-3.2 -1.8,0 -3.2,1.5 -3.2,3.2 0,1.4 0.9,2.6 2.1,3 v 4.2 C 37.3,29.8 28.5,38.6 28,49.5 h -1.9 c -0.5,-1.2 -1.6,-2.1 -3,-2.1 -1.8,0 -3.2,1.5 -3.2,3.2 0,1.7 1.5,3.2 3.2,3.2 1.4,0 2.6,-0.9 3,-2.1 h 3 c 0.6,0 1.2,-0.5 1.2,-1.2 0,-10.1 7.9,-18.4 17.9,-19 v 1.1 c -9.3,0.6 -16.8,8.4 -16.8,17.9 0,4.5 1.7,8.7 4.5,11.8 l -3.5,3.5 h -6.2 c -0.5,-1.2 -1.6,-2.1 -3,-2.1 -1.8,0 -3.2,1.5 -3.2,3.2 0,1.7 1.5,3.2 3.2,3.2 1.4,0 2.6,-0.9 3,-2.1 h 6.7 c 0.1,0 0.3,0 0.4,-0.1 0,0 0,0 0,0 0.1,-0.1 0.3,-0.1 0.4,-0.3 l 3.8,-3.8 c 3.2,2.8 7.3,4.5 11.8,4.5 9.5,0 17.3,-7.4 17.9,-16.8 h 1.1 c -0.6,10 -8.9,17.9 -19,17.9 -0.6,0 -1.2,0.5 -1.2,1.2 v 4.1 C 46.9,75.4 46,76.6 46,78 c 0,1.8 1.5,3.2 3.2,3.2 1.8,0 3.2,-1.5 3.2,-3.2 0,-1.3 -0.8,-2.5 -2,-3 V 72 C 61.3,71.4 70,62.7 70.6,51.8 h 3.2 c 0.5,1.2 1.6,2 3,2 1.8,0 3.2,-1.5 3.2,-3.2 0,-1.7 -1.3,-3.3 -3.1,-3.3 z M 49.3,66.2 c -3.9,0 -7.4,-1.4 -10.2,-3.8 L 40.5,61 c 2.4,2 5.4,3.2 8.8,3.2 7.1,0 13,-5.5 13.6,-12.5 h 2 c -0.6,8.1 -7.4,14.5 -15.6,14.5 z m 5.2,-16.7 c -0.5,-2.4 -2.6,-4.1 -5.2,-4.1 -2.9,0 -5.3,2.4 -5.3,5.3 0,1 0.3,2 0.8,2.8 l -5.4,5.4 c -1.9,-2.2 -3,-5.1 -3,-8.2 0,-7.1 5.8,-12.9 12.9,-12.9 6.7,0 12.2,5.1 12.8,11.7 z m 7.6,2.3 c -0.6,6.5 -6.1,11.7 -12.8,11.7 -3.1,0 -6,-1.1 -8.2,-3 l 5.4,-5.4 c 0.8,0.5 1.8,0.8 2.8,0.8 2.5,0 4.6,-1.8 5.2,-4.1 z m 0.8,-2.3 C 62.3,42.5 56.5,37 49.3,37 c -7.5,0 -13.6,6.1 -13.6,13.6 0,3.3 1.2,6.4 3.2,8.8 l -1.4,1.4 C 35.1,58.1 33.7,54.5 33.7,50.6 33.7,42 40.7,35 49.3,35 c 8.2,0 15,6.4 15.6,14.5 z"
       fill="none" /><path
       id="path835"
       d="M 76.8,9.7 H 23.2 C 15.8,9.7 9.7,15.8 9.7,23.2 v 53.7 c 0,7.4 6.1,13.5 13.5,13.5 h 53.7 c 7.4,0 13.5,-6.1 13.5,-13.5 V 23.2 C 90.3,15.7 84.3,9.7 76.8,9.7 Z m 0.1,44.1 c -1.4,0 -2.5,-0.8 -3,-2 H 70.7 C 70.1,62.6 61.4,71.4 50.5,72 v 3 c 1.2,0.5 2,1.6 2,3 0,1.8 -1.5,3.2 -3.2,3.2 -1.8,0 -3.2,-1.5 -3.2,-3.2 0,-1.4 0.9,-2.6 2.2,-3.1 v -4.1 c 0,-0.6 0.5,-1.2 1.2,-1.2 10.1,0 18.4,-7.9 19,-17.9 H 67.4 C 66.8,61 59,68.5 49.5,68.5 45,68.5 40.8,66.8 37.7,64 l -3.8,3.8 c -0.1,0.1 -0.2,0.2 -0.4,0.3 0,0 0,0 0,0 -0.1,0.1 -0.3,0.1 -0.4,0.1 h -6.7 c -0.5,1.2 -1.6,2.1 -3,2.1 -1.8,0 -3.2,-1.5 -3.2,-3.2 0,-1.7 1.5,-3.2 3.2,-3.2 1.4,0 2.6,0.9 3,2.1 h 6.2 l 3.5,-3.5 C 33.3,59.3 31.6,55.2 31.6,50.7 31.6,41.2 39,33.4 48.4,32.8 v -1.1 c -10,0.6 -17.9,8.9 -17.9,19 0,0.6 -0.5,1.2 -1.2,1.2 h -3 c -0.5,1.2 -1.6,2.1 -3,2.1 -1.8,0 -3.2,-1.5 -3.2,-3.2 0,-1.7 1.5,-3.2 3.2,-3.2 1.4,0 2.6,0.9 3,2.1 H 28 C 28.6,38.8 37.3,30.1 48.2,29.5 v -4.2 c -1.2,-0.5 -2.1,-1.6 -2.1,-3 0,-1.8 1.5,-3.2 3.2,-3.2 1.8,0 3.2,1.5 3.2,3.2 0,1.4 -0.9,2.6 -2.1,3 v 4.2 c 4.3,0.2 8.4,1.8 11.8,4.4 h 2.9 c 0.5,-1.2 1.6,-2.1 3,-2.1 1.8,0 3.2,1.5 3.2,3.2 0,1.8 -1.5,3.2 -3.2,3.2 -1.4,0 -2.6,-0.9 -3,-2.1 h -3.3 c 0,0 0,0 0,0 0,0 -0.1,0 -0.1,0 0,0 -0.1,0 -0.1,0 0,0 -0.1,0 -0.1,0 0,0 -0.1,0 -0.1,0 0,0 -0.1,0 -0.1,-0.1 0,0 -0.1,0 -0.1,-0.1 0,0 0,0 0,0 C 58.1,33.4 54.4,32 50.5,31.8 v 1.1 c 9,0.6 16.2,7.8 16.7,16.7 h 6.7 c 0.5,-1.2 1.6,-2.1 3,-2.1 1.8,0 3.2,1.5 3.2,3.2 0,1.7 -1.4,3.1 -3.2,3.1 z"
       style="fill:#8da9c4;fill-opacity:1" /><path
       id="path837"
       d="m 49.3,35 c -8.6,0 -15.6,7 -15.6,15.6 0,3.9 1.4,7.4 3.8,10.2 l 1.4,-1.4 C 36.9,57 35.7,54 35.7,50.6 35.7,43.1 41.8,37 49.3,37 c 7.1,0 13,5.5 13.6,12.5 h 2 C 64.3,41.4 57.5,35 49.3,35 Z"
       style="fill:#134074;fill-opacity:1" /><path
       id="path839"
       d="m 49.3,55.9 c -1,0 -2,-0.3 -2.8,-0.8 l -5.4,5.4 c 2.2,1.9 5.1,3 8.2,3 6.7,0 12.2,-5.1 12.8,-11.7 h -7.6 c -0.6,2.3 -2.7,4.1 -5.2,4.1 z"
       style="fill:#134074;fill-opacity:1" /><path
       id="path841"
       d="m 49.3,37.8 c -7.1,0 -12.9,5.8 -12.9,12.9 0,3.1 1.1,6 3,8.2 l 5.4,-5.4 C 44.3,52.7 44,51.7 44,50.7 c 0,-2.9 2.4,-5.3 5.3,-5.3 2.5,0 4.6,1.8 5.2,4.1 h 7.6 C 61.5,42.9 56,37.8 49.3,37.8 Z"
       style="fill:#134074;fill-opacity:1" /><path
       id="path843"
       d="M 49.3,64.2 C 46,64.2 42.9,63 40.5,61 l -1.4,1.4 c 2.7,2.4 6.3,3.8 10.2,3.8 8.2,0 15,-6.4 15.6,-14.5 h -2 c -0.6,7 -6.5,12.5 -13.6,12.5 z"
       style="fill:#134074;fill-opacity:1" /></g></svg>
